<?xml version="1.0" encoding="UTF-8"?>
<svg version="1.1" xmlns="http://www.w3.org/2000/svg" width="395" height="59">
<path d="M0 0 C0 0.66 0 1.32 0 2 C2.64 1.67 5.28 1.34 8 1 C11 4.75 11 4.75 11 7 C13.31006947 7.69621948 13.31006947 7.69621948 16 8 C16.59296875 7.66355469 17.1859375 7.32710937 17.796875 6.98046875 C20.78671191 5.6498853 22.79480718 6.18668862 26 6.6875 C29.14273105 7.091646 29.14273105 7.091646 32 7 C34.5120439 4.75708588 34.5120439 4.75708588 36 2 C38.5625 1 38.5625 1 41 1 C42.8125 2.25 42.8125 2.25 44 4 C44 4.99 44 5.98 44 7 C48.31849108 7.98147525 50.14565294 7.98557273 54 6 C59.20969989 5.52639092 61.64586164 6.29337345 66 9 C68.42414526 8.77273638 70.09984416 7.95412565 72.3125 6.9375 C76.75801598 5.38673861 80.57476581 5.49522956 85 7.0625 C88.76021294 8.23756655 91.1410193 7.71947098 95 7 C100.98892501 5.92157469 104.62307141 5.5532509 110 9 C110.99 8.34 111.98 7.68 113 7 C118.87471957 5.87268895 124.9497374 4.8211513 130.3125 7.9375 C131.199375 8.618125 132.08625 9.29875 133 10 C133 10.66 133 11.32 133 12 C133.66 12 134.32 12 135 12 C135 13.65 135 15.3 135 17 C135.99 16.505 135.99 16.505 137 16 C138.875 15.83203125 138.875 15.83203125 141 15.8125 C141.70125 15.79832031 142.4025 15.78414062 143.125 15.76953125 C145 16 145 16 147 18 C147.36351562 17.18595703 147.36351562 17.18595703 147.734375 16.35546875 C149.97777658 11.56666922 151.65621783 8.26833117 156.8125 6.3125 C163.17764536 5.40319352 167.34413917 6.22978245 173 9 C173 8.34 173 7.68 173 7 C176.70479057 5.81446702 180.13216874 5.72857324 184 6 C185.68029994 6.97691857 187.34928604 7.97388051 189 9 C191.20543633 8.75495152 192.42419664 8.57580336 194 7 C196.26506912 6.73627915 198.53803273 6.53896777 200.8125 6.375 C202.67841797 6.23191406 202.67841797 6.23191406 204.58203125 6.0859375 C207.44168955 6.01403752 209.30862999 6.25971641 212 7 C212.66 6.67 213.32 6.34 214 6 C217.79159134 5.56913735 219.780605 5.89452163 223.25 7.5625 C227.48524442 11.31646665 227.85546052 14.60252988 228.1796875 19.98046875 C228.38457358 29.32555033 228.38457358 29.32555033 226 33 C223.35338932 34.27767412 222.19597906 34.06066019 219.375 33.1875 C217 32 217 32 215 30 C214.443125 30.680625 213.88625 31.36125 213.3125 32.0625 C211 34 211 34 208.4375 34.0625 C205.28259256 32.68728394 204.48019676 31.03829861 203 28 C202.34 29.65 201.68 31.3 201 33 C193.38655462 34.26890756 193.38655462 34.26890756 189 32 C187.32700041 32.65061095 185.66140763 33.32033324 184 34 C179.62645669 34.27768529 176.83164228 34.28244455 172.6875 32.875 C171.800625 32.58625 170.91375 32.2975 170 32 C169.01 32.66 168.02 33.32 167 34 C161.77211838 34.60253551 156.72094018 34.51783476 152 32 C152 31.34 152 30.68 152 30 C148.88214887 30.64644661 148.88214887 30.64644661 148 33 C144.30624122 34.23125293 140.84512599 34.46420032 137 34 C134.5 32.5 134.5 32.5 133 31 C132.13375 31.495 131.2675 31.99 130.375 32.5 C126.89250377 34.0477761 124.75240542 34.26802896 121 34 C121.061875 34.94875 121.12375 35.8975 121.1875 36.875 C121.125625 37.90625 121.06375 38.9375 121 40 C116.8204355 42.78637633 114.85331323 41.79562512 110 41 C110 38.03 110 35.06 110 32 C108.68 32.66 107.36 33.32 106 34 C103.66796188 34.0777346 101.33160941 34.08967728 99 34 C99.0309375 35.7015625 99.0309375 35.7015625 99.0625 37.4375 C99 41 99 41 98 42 C96.48071962 42.07179964 94.95832518 42.08392007 93.4375 42.0625 C92.61121094 42.05347656 91.78492188 42.04445312 90.93359375 42.03515625 C90.29550781 42.02355469 89.65742188 42.01195312 89 42 C89 41.34 89 40.68 89 40 C88.34 40 87.68 40 87 40 C86.67 38.02 86.34 36.04 86 34 C85.01257813 34.02320313 84.02515625 34.04640625 83.0078125 34.0703125 C81.72648438 34.08835938 80.44515625 34.10640625 79.125 34.125 C77.84882813 34.14820313 76.57265625 34.17140625 75.2578125 34.1953125 C72 34 72 34 70 32 C67.29421343 32.29410724 64.78036624 32.75330358 62.18359375 33.57421875 C59.32213133 34.13217833 56.83077582 33.81549972 53.9375 33.5 C49.39951216 32.99257348 49.39951216 32.99257348 45 34 C41.375 34.125 41.375 34.125 38 34 C37.67 33.67 37.34 33.34 37 33 C34.5 32.83333333 34.5 32.83333333 32 33 C31.67 33.33 31.34 33.66 31 34 C29.08548183 34.09983684 27.16711381 34.12967589 25.25 34.125 C24.20328125 34.12757812 23.1565625 34.13015625 22.078125 34.1328125 C19 34 19 34 16.296875 33.4296875 C13.85140909 32.77992818 13.85140909 32.77992818 11 34 C9.0625 33.94921875 9.0625 33.94921875 7 33.6875 C6.319375 33.60886719 5.63875 33.53023437 4.9375 33.44921875 C3 33 3 33 0 31 C-0.33 31.99 -0.66 32.98 -1 34 C-4.375 34.1875 -4.375 34.1875 -8 34 C-8.66 33.01 -9.32 32.02 -10 31 C-10.99 31.99 -10.99 31.99 -12 33 C-15.24617544 34.14190685 -18.33329725 34.10317503 -21.75 34.0625 C-22.73484375 34.05347656 -23.7196875 34.04445312 -24.734375 34.03515625 C-25.48203125 34.02355469 -26.2296875 34.01195312 -27 34 C-27 33.34 -27 32.68 -27 32 C-27.66 32 -28.32 32 -29 32 C-29.33 31.34 -29.66 30.68 -30 30 C-30.66 31.65 -31.32 33.3 -32 35 C-32.66 35 -33.32 35 -34 35 C-34.2784375 35.928125 -34.2784375 35.928125 -34.5625 36.875 C-36 39 -36 39 -39.25 40.375 C-43.2909024 41.04848373 -45.29773201 40.62538595 -49 39 C-49.33 37.35 -49.66 35.7 -50 34 C-51.65 34 -53.3 34 -55 34 C-58.00974609 28.98375652 -58.37937519 25.69062784 -58 20 C-57.67 19.34 -57.34 18.68 -57 18 C-57.99 18 -58.98 18 -60 18 C-60 22.62 -60 27.24 -60 32 C-60.66 32 -61.32 32 -62 32 C-62.495 32.99 -62.495 32.99 -63 34 C-65.10388569 34.05402274 -67.20816714 34.09280256 -69.3125 34.125 C-70.48425781 34.14820313 -71.65601563 34.17140625 -72.86328125 34.1953125 C-76 34 -76 34 -79 32 C-80.1875 29.875 -80.1875 29.875 -81 28 C-82.65 28 -84.3 28 -86 28 C-86.33 29.32 -86.66 30.64 -87 32 C-87.66 32 -88.32 32 -89 32 C-89.33 32.66 -89.66 33.32 -90 34 C-91.98 34 -93.96 34 -96 34 C-96 33.34 -96 32.68 -96 32 C-96.99 31.67 -97.98 31.34 -99 31 C-98.33372677 25.9186632 -96.89821968 21.36355199 -95.1875 16.5625 C-94.93935547 15.83740234 -94.69121094 15.11230469 -94.43554688 14.36523438 C-90.08426248 2.04213124 -90.08426248 2.04213124 -86 0 C-83.1875 -0.375 -83.1875 -0.375 -80 0 C-75.91952254 3.15309622 -74.26875388 6.04032572 -73 11 C-72.31808594 10.35675781 -71.63617188 9.71351562 -70.93359375 9.05078125 C-67.42465328 6.59779357 -65.30444195 6.38554941 -61.0625 6.1875 C-59.28552734 6.08501953 -59.28552734 6.08501953 -57.47265625 5.98046875 C-54.18189176 5.99897699 -51.22852698 6.41008501 -48 7 C-46.948125 6.95875 -45.89625 6.9175 -44.8125 6.875 C-42 7 -42 7 -40.1875 8.25 C-38.88741278 10.16591802 -38.39143023 11.72970466 -38 14 C-37.34 14 -36.68 14 -36 14 C-35.566875 12.5459375 -35.566875 12.5459375 -35.125 11.0625 C-34 8 -34 8 -32 7 C-29.20293327 6.73940372 -26.42786961 6.53330161 -23.625 6.375 C-22.47257812 6.29765625 -22.47257812 6.29765625 -21.296875 6.21875 C-20.55179687 6.17492187 -19.80671875 6.13109375 -19.0390625 6.0859375 C-18.02126709 6.0247876 -18.02126709 6.0247876 -16.98291016 5.96240234 C-14.85198206 6.00280655 -13.04188145 6.40951459 -11 7 C-10.71125 5.865625 -10.4225 4.73125 -10.125 3.5625 C-9.568125 1.7990625 -9.568125 1.7990625 -9 0 C-5.93109813 -1.53445094 -3.29905734 -0.54984289 0 0 Z M57 18 C56.67 19.32 56.34 20.64 56 22 C56.99 22 57.98 22 59 22 C58.67 20.68 58.34 19.36 58 18 C57.67 18 57.34 18 57 18 Z M99 18 C99 19.65 99 21.3 99 23 C99.66 23 100.32 23 101 23 C101.33 21.35 101.66 19.7 102 18 C101.01 18 100.02 18 99 18 Z M121 18 C121 19.65 121 21.3 121 23 C121.66 23 122.32 23 123 23 C123.33 21.68 123.66 20.36 124 19 C123.01 18.67 122.02 18.34 121 18 Z M160 18 C160.33 19.65 160.66 21.3 161 23 C162.98 22.67 164.96 22.34 167 22 C167 20.68 167 19.36 167 18 C164.69 18 162.38 18 160 18 Z M179 18 C179 19.32 179 20.64 179 22 C179.99 22 180.98 22 182 22 C181.67 20.68 181.34 19.36 181 18 C180.34 18 179.68 18 179 18 Z " fill="#070707" transform="translate(153,16)"/>
<path d="M0 0 C0 -0.66 0 -1.32 0 -2 C3.70479057 -3.18553298 7.13216874 -3.27142676 11 -3 C12.68029994 -2.02308143 14.34928604 -1.02611949 16 0 C18.20543633 -0.24504848 19.42419664 -0.42419664 21 -2 C23.26506912 -2.26372085 25.53803273 -2.46103223 27.8125 -2.625 C29.67841797 -2.76808594 29.67841797 -2.76808594 31.58203125 -2.9140625 C34.44168955 -2.98596248 36.30862999 -2.74028359 39 -2 C39.66 -2.33 40.32 -2.66 41 -3 C44.79159134 -3.43086265 46.780605 -3.10547837 50.25 -1.4375 C54.48524442 2.31646665 54.85546052 5.60252988 55.1796875 10.98046875 C55.38457358 20.32555033 55.38457358 20.32555033 53 24 C50.35338932 25.27767412 49.19597906 25.06066019 46.375 24.1875 C44 23 44 23 42 21 C41.443125 21.680625 40.88625 22.36125 40.3125 23.0625 C38 25 38 25 35.4375 25.0625 C32.28259256 23.68728394 31.48019676 22.03829861 30 19 C29.34 20.65 28.68 22.3 28 24 C20.38655462 25.26890756 20.38655462 25.26890756 16 23 C14.32700041 23.65061095 12.66140763 24.32033324 11 25 C6.62645669 25.27768529 3.83164228 25.28244455 -0.3125 23.875 C-1.199375 23.58625 -2.08625 23.2975 -3 23 C-3.99 23.66 -4.98 24.32 -6 25 C-11.22788162 25.60253551 -16.27905982 25.51783476 -21 23 C-21 22.34 -21 21.68 -21 21 C-24.11785113 21.64644661 -24.11785113 21.64644661 -25 24 C-28.69285672 25.23095224 -32.15547992 25.46600243 -36 25 C-38.375 23.5 -38.375 23.5 -40 22 C-40.66 22 -41.32 22 -42 22 C-42 21.01 -42 20.02 -42 19 C-40.35 18.34 -38.7 17.68 -37 17 C-37.20625 15.906875 -37.4125 14.81375 -37.625 13.6875 C-38 10 -38 10 -36 7 C-34.125 6.63671875 -34.125 6.63671875 -32 6.6875 C-31.29875 6.69136719 -30.5975 6.69523437 -29.875 6.69921875 C-28 7 -28 7 -26 9 C-25.75765625 8.45730469 -25.5153125 7.91460937 -25.265625 7.35546875 C-23.02222342 2.56666922 -21.34378217 -0.73166883 -16.1875 -2.6875 C-9.82235464 -3.59680648 -5.65586083 -2.77021755 0 0 Z M-13 9 C-12.67 10.65 -12.34 12.3 -12 14 C-10.02 13.67 -8.04 13.34 -6 13 C-6 11.68 -6 10.36 -6 9 C-8.31 9 -10.62 9 -13 9 Z M6 9 C6 10.32 6 11.64 6 13 C6.99 13 7.98 13 9 13 C8.67 11.68 8.34 10.36 8 9 C7.34 9 6.68 9 6 9 Z " fill="#080808" transform="translate(326,25)"/>
<path d="M0 0 C0.98291016 0.00322266 1.96582031 0.00644531 2.97851562 0.00976562 C4.51475586 0.02233398 4.51475586 0.02233398 6.08203125 0.03515625 C7.63567383 0.04192383 7.63567383 0.04192383 9.22070312 0.04882812 C11.77870391 0.06061615 14.33658858 0.0770711 16.89453125 0.09765625 C16.56453125 2.07765625 16.23453125 4.05765625 15.89453125 6.09765625 C15.06260254 6.1116748 15.06260254 6.1116748 14.21386719 6.12597656 C11.68986644 6.17981347 9.16769311 6.26342879 6.64453125 6.34765625 C5.77183594 6.36183594 4.89914063 6.37601563 4 6.390625 C-1.13859616 6.56896446 -1.13859616 6.56896446 -5.65234375 8.83203125 C-8.73256687 13.63452967 -8.28812141 18.92730041 -8.29296875 24.47265625 C-8.30521484 25.20226562 -8.31746094 25.931875 -8.33007812 26.68359375 C-8.34287786 31.46216302 -7.82901159 35.57407206 -6.10546875 40.09765625 C-1.36886073 43.25539493 3.71569811 42.50769258 9.29125977 42.52319336 C11.3223505 42.5350995 13.35040908 42.58429366 15.38085938 42.63476562 C16.66283203 42.64185547 17.94480469 42.64894531 19.265625 42.65625 C20.4405249 42.66970459 21.6154248 42.68315918 22.82592773 42.69702148 C26.05566028 42.35273561 26.05566028 42.35273561 28.27075195 39.82568359 C29.83127394 37.20393157 30.41271992 35.8769773 30.50390625 32.890625 C30.53613281 32.13974609 30.56835938 31.38886719 30.6015625 30.61523438 C30.61574219 29.84630859 30.62992188 29.07738281 30.64453125 28.28515625 C30.68900391 27.10276367 30.68900391 27.10276367 30.734375 25.89648438 C30.80464418 23.96408179 30.85190259 22.0308661 30.89453125 20.09765625 C32.87453125 19.76765625 34.85453125 19.43765625 36.89453125 19.09765625 C36.98204395 22.32665051 37.03509271 25.55533741 37.08203125 28.78515625 C37.10716797 29.69716797 37.13230469 30.60917969 37.15820312 31.54882812 C37.22937877 38.07326183 36.31548091 41.45662026 31.83203125 46.34765625 C28.30386486 49.53438718 25.19851359 49.27303862 20.65625 49.30078125 C19.93846878 49.30648132 19.22068756 49.3121814 18.4811554 49.3180542 C16.96051508 49.32750577 15.43985426 49.33403881 13.91918945 49.33789062 C11.60135736 49.3475755 9.28442 49.37858705 6.96679688 49.41015625 C5.48828651 49.41668862 4.0097698 49.42193817 2.53125 49.42578125 C1.84149582 49.43812805 1.15174164 49.45047485 0.44108582 49.4631958 C-4.87603558 49.43879087 -7.88918076 47.99733167 -11.85546875 44.59765625 C-15.68536145 40.00178501 -14.36903849 32.63782558 -14.40063477 26.95629883 C-14.41214867 25.51414168 -14.43259166 24.07202696 -14.4621582 22.63012695 C-14.505008 20.53958364 -14.52102621 18.45030391 -14.53125 16.359375 C-14.54583252 15.11115967 -14.56041504 13.86294434 -14.57543945 12.5769043 C-14.01996423 8.4646563 -12.72688494 6.27842989 -10.10546875 3.09765625 C-9.44546875 3.09765625 -8.78546875 3.09765625 -8.10546875 3.09765625 C-8.10546875 2.43765625 -8.10546875 1.77765625 -8.10546875 1.09765625 C-5.10530963 0.09760321 -3.13123119 -0.0180996 0 0 Z " fill="#000000" transform="translate(14.10546875,4.90234375)"/>
<path d="M0 0 C2.93423195 1.79646854 4.47205355 2.9441071 6 6 C6.6326744 10.51910283 6.77294479 14.66253178 4.0625 18.5 C0.11821645 21.71982331 -2.961039 22.41227863 -8 22 C-10.875 20.75 -10.875 20.75 -13 19 C-13.5775 18.5875 -14.155 18.175 -14.75 17.75 C-16.78264469 14.90429744 -16.883051 12.44999559 -17 9 C-13.86235023 0.41274801 -8.58948539 -1.29259246 0 0 Z " fill="#AD2BFF" transform="translate(50,0)"/>
<path d="M0 0 C1.91015625 0.23046875 1.91015625 0.23046875 3.91015625 2.23046875 C4.22265625 5.73046875 4.22265625 5.73046875 3.91015625 9.23046875 C0.91015625 11.23046875 0.91015625 11.23046875 -2.65234375 11.04296875 C-6.08984375 10.23046875 -6.08984375 10.23046875 -8.08984375 7.23046875 C-7.40718143 0.40384554 -6.80373462 0.13582773 0 0 Z " fill="#A92AF7" transform="translate(296.08984375,31.76953125)"/>
<path d="M0 0 C2 1.375 2 1.375 4 3 C4 3.66 4 4.32 4 5 C1.03 4.505 1.03 4.505 -2 4 C-2 3.01 -2 2.02 -2 1 C-1.34 0.67 -0.68 0.34 0 0 Z " fill="#2B2B2B" transform="translate(286,43)"/>
<path d="M0 0 C1.125 3.75 1.125 3.75 0 6 C-2.0625 6.625 -2.0625 6.625 -4 7 C-4.33 6.01 -4.66 5.02 -5 4 C-4.360625 3.71125 -3.72125 3.4225 -3.0625 3.125 C-0.84793921 2.17176549 -0.84793921 2.17176549 0 0 Z " fill="#1E1E1E" transform="translate(379,43)"/>
</svg>
